# xmcd
#
# Track frame offsets: 
#        150
#        15457
#        34755
#        53072
#        56882
#        75970
#        97442
#        115125
#        134287
#        158607
#        182302
#        191707
#        219885
#
# Disc length: 3137 seconds
#
# Revision: 3
# Processed by: cddbd v1.5.2PL0 Copyright (c) Steve Scherf et al.
# Submitted via: ExactAudioCopyFreeDBPlugin 1.0
#
DISCID=a30c3f0d
DTITLE=Alfonzo Hunter - Blacka Da Berry
DYEAR=1996
DGENRE=R&B
TTITLE0=Weekend Thang
TTITLE1=Blacka Da Berry
TTITLE2=When You're Ready
TTITLE3=Keep It Tight (Interlude)
TTITLE4=Slow Motion
TTITLE5=Crazy
TTITLE6=Just The Way (Playas Play)
TTITLE7=Groove On
TTITLE8=Would You Be Mine
TTITLE9=Everything
TTITLE10=Daddy's Little Baby
TTITLE11=Rest In Peace
TTITLE12=Quiet Time
EXTD=
EXTT0=
EXTT1=
EXTT2=
EXTT3=
EXTT4=
EXTT5=
EXTT6=
EXTT7=
EXTT8=
EXTT9=
EXTT10=
EXTT11=
EXTT12=
PLAYORDER=
